<svg width="24" height="24" viewBox="0 0 24 24" fill="none" xmlns="http://www.w3.org/2000/svg">
<g clip-path="url(#clip0_2011_9)" filter="url(#filter0_b_2011_9)">
<rect width="24" height="24" fill="white"/>
<path d="M23 15.7072C19.3333 15.7072 18.7222 15.7527 15.6667 15.7527C15.6667 21.8053 15.6667 20.3539 15.6667 23.9855C15.3029 23.9855 15.3311 23.0193 14.2549 23.7067C13.3745 24.269 12.6207 23.8184 12.484 23.7067C12.3472 23.595 10.8555 22.4015 10.8555 22.4015L9.39718 23.7067C9.19035 23.8888 8.92262 23.9881 8.64592 23.9855C8.37191 23.9879 8.10673 23.8895 7.90165 23.7095L6.44619 22.4043L4.9739 23.721C4.76697 23.9022 4.49995 24.0014 4.22381 23.9999C3.94932 24.0029 3.68354 23.9045 3.47836 23.7239L1.76982 22.1944C1.8094 22.2529 1.7165 22.1479 1.76982 22.1944C1.57717 22.0552 1.28001 21.7153 1.17067 21.5055C1.06133 21.2956 1.0029 21.0633 1 20.8271V2.15403C1 1.5175 1.51438 1 2.13267 1H21.7778C22.4037 1 23 1.56939 23 2.21053V15.7072Z" fill="#030303"/>
<circle cx="18.5" cy="18.5" r="6.5" fill="white"/>
<path d="M18.5001 24C15.4624 24 13 21.5376 13 18.5C13 15.4624 15.4624 13 18.5001 13C21.5377 13 24 15.4624 24 18.5C24 21.5377 21.5376 24 18.5001 24ZM21.095 18.4257C21.1577 18.4306 21.2207 18.4225 21.2802 18.4018C21.3396 18.3812 21.3942 18.3485 21.4404 18.3057C21.4866 18.263 21.5235 18.2112 21.5486 18.1535C21.5739 18.0958 21.5869 18.0336 21.5869 17.9706C21.5869 17.9077 21.5739 17.8454 21.5486 17.7878C21.5235 17.7301 21.4866 17.6782 21.4404 17.6356C21.3942 17.5928 21.3396 17.5601 21.2802 17.5394C21.2207 17.5188 21.1577 17.5107 21.095 17.5155H19.9091L21.0916 16.3357C21.1345 16.2935 21.1685 16.2432 21.1916 16.1877C21.2149 16.1323 21.2268 16.0728 21.2268 16.0126C21.2268 15.9525 21.2149 15.8929 21.1916 15.8375C21.1685 15.782 21.1345 15.7318 21.0916 15.6895C21.0054 15.6048 20.8894 15.5573 20.7685 15.5573C20.6476 15.5573 20.5316 15.6048 20.4454 15.6895L18.764 17.3642L17.0838 15.6906C17.0195 15.6269 16.9377 15.5835 16.8489 15.566C16.7601 15.5485 16.668 15.5576 16.5843 15.5921C16.5006 15.6266 16.4289 15.685 16.3783 15.7601C16.3276 15.8352 16.3002 15.9235 16.2995 16.014C16.2995 16.135 16.3485 16.2516 16.4348 16.3368L17.62 17.5155H16.5118C16.3956 17.5224 16.2865 17.5735 16.2068 17.6582C16.127 17.7429 16.0826 17.8548 16.0826 17.9712C16.0826 18.0875 16.127 18.1995 16.2068 18.2842C16.2865 18.3689 16.3956 18.4199 16.5118 18.4269H18.345V19.3387H16.5101C16.3891 19.3387 16.2729 19.3868 16.1873 19.4725C16.1017 19.558 16.0536 19.6742 16.0536 19.7952C16.0536 19.9163 16.1017 20.0324 16.1873 20.118C16.2729 20.2036 16.3891 20.2517 16.5101 20.2517H18.3444V21.3143C18.3444 21.436 18.3927 21.5526 18.4787 21.6387C18.5647 21.7247 18.6814 21.773 18.8031 21.773C18.9247 21.773 19.0414 21.7247 19.1274 21.6387C19.2135 21.5526 19.2618 21.436 19.2618 21.3143V20.2517H21.0944C21.2155 20.2517 21.3316 20.2036 21.4172 20.118C21.5028 20.0324 21.5509 19.9163 21.5509 19.7952C21.5509 19.6742 21.5028 19.558 21.4172 19.4725C21.3316 19.3868 21.2155 19.3387 21.0944 19.3387H19.2618V18.4257H21.095Z" fill="#030303"/>
<rect x="13" y="2" width="9" height="9" rx="1" fill="white"/>
<path fill-rule="evenodd" clip-rule="evenodd" d="M16.1259 9.39284C16.5598 9.53753 16.9938 9.60987 17.5 9.60987C19.525 9.60987 21.1884 8.09106 21.1884 6.35536C21.1884 5.84912 21.0438 5.34288 20.8268 4.90896C20.3201 5.19396 19.5222 5.67309 18.755 6.13385C17.77 6.72535 16.8354 7.28657 16.6321 7.36787C16.1982 7.58481 16.1259 7.22324 16.1259 7.22324L15.5473 5.92145C15.3303 5.34286 15.7643 5.70448 15.7643 5.70448L16.3429 6.1384C16.6321 6.35536 16.9214 6.21074 16.9214 6.21074L20.5375 4.54732C19.8866 3.75178 18.7295 3.1732 17.5 3.1732C15.475 3.1732 13.8116 4.61966 13.8116 6.42769C13.8116 7.4402 14.3178 8.38036 15.1857 8.95895L15.0411 9.82682C15.0411 9.82682 14.9687 10.1161 15.258 9.97143C15.3179 9.94146 15.4275 9.86185 15.5559 9.76858C15.7374 9.63672 15.9565 9.47758 16.1259 9.39284ZM14 2C13.4477 2 13 2.44772 13 3V10C13 10.5523 13.4477 11 14 11H21C21.5523 11 22 10.5523 22 10V3C22 2.44772 21.5523 2 21 2H14Z" fill="#030303"/>
<path d="M2.62965 12.4812L0.857132 9.95123V0.928568L8.61748 0.346031L11.5367 2.83191V11.7899L2.62965 12.4812Z" fill="white"/>
<path d="M0.784429 0.547044L8.16157 0.00376907C8.48216 -0.0203231 8.80103 0.071591 9.06764 0.26494L11.6596 2.15394C11.8723 2.30895 12 2.56264 12 2.83378V11.6259C12 12.0635 11.673 12.4258 11.2535 12.4537L3.06464 12.997C2.86004 13.0115 2.65519 12.973 2.46722 12.8847C2.27926 12.7965 2.11363 12.661 1.9842 12.4896L0.393139 10.3539C0.13934 10.0148 0.000638165 9.59239 0 9.15671V1.42376C0 0.962226 0.342262 0.57994 0.784429 0.547044ZM1.22521 1.28221C1.09616 1.29218 1.0476 1.46264 1.15028 1.54438L2.17799 2.36427C2.35606 2.50632 2.57714 2.5776 2.801 2.56414L10.1994 2.13052C10.2656 2.12703 10.2905 2.03931 10.2373 1.99844L8.835 0.928334C8.65327 0.790341 8.43278 0.724469 8.21106 0.741925L1.22521 1.28221ZM2.89628 3.43637C2.64791 3.45082 2.45411 3.66465 2.45411 3.92382V11.5048C2.45411 11.7859 2.68075 12.0092 2.9504 11.9927L10.7235 11.5157C10.9709 11.5008 11.1647 11.2869 11.1647 11.0283V3.41594C11.1647 3.16324 10.9612 2.96287 10.7188 2.97733L2.89628 3.43637ZM3.80189 5.1923V5.29347L4.43184 5.33135V10.3061L4.18994 10.3335C3.95082 10.3609 3.77784 10.5837 3.80189 10.8329L5.64224 10.7442C5.86703 10.7337 6.0525 10.5583 6.08487 10.3265L6.09505 10.2527L5.35502 10.1002V6.36906L7.75918 10.2781C7.99414 10.6609 8.45203 10.8239 8.86321 10.6719L9.35533 10.4895V4.90421L9.74708 4.83294C9.80067 4.82409 9.8496 4.79504 9.88517 4.75096C9.92075 4.70687 9.94065 4.65062 9.94134 4.5922V4.3395L8.31189 4.42922C8.06306 4.44317 7.86787 4.65749 7.86787 4.91717V4.96502L8.50522 5.05673V8.50578L6.02891 4.57625L4.2385 4.70484C3.99291 4.72279 3.80189 4.93561 3.80189 5.1923Z" fill="black"/>
<rect x="3" y="14" width="7" height="7" rx="1.2" fill="black"/>
<path d="M10 18.7923V15.3459C10 14.6029 9.39714 14 8.6538 14H4.34576C3.6029 14 3 14.6029 3 15.3459V19.6542C3 20.3971 3.60242 21 4.34576 21H8.6538C9.31572 21 9.86655 20.5213 9.97897 19.8918C9.62198 19.7373 8.07498 19.0692 7.26908 18.6846C6.65576 19.4276 6.01346 19.8734 5.04528 19.8734C4.0771 19.8734 3.4309 19.277 3.50834 18.5472C3.55952 18.0681 3.88809 17.285 5.31519 17.4193C6.06726 17.4897 6.41159 17.6302 7.02498 17.8327C7.18376 17.5419 7.3154 17.2215 7.4156 16.8807H4.69576V16.6112H6.04148V16.1272H4.4V15.8306H6.04148V15.1323C6.04148 15.1323 6.05636 15.0229 6.17714 15.0229H6.85V15.8306H8.59993V16.1272H6.85V16.6112H8.27758C8.14631 17.1454 7.94724 17.6363 7.69788 18.0651C8.11261 18.2151 10 18.7923 10 18.7923ZM4.93813 19.4113C3.91527 19.4113 3.75339 18.7656 3.80763 18.4956C3.86143 18.2269 4.15763 17.8765 4.7264 17.8765C5.38 17.8765 5.96537 18.0436 6.66799 18.3857C6.17449 19.0285 5.56813 19.4113 4.93813 19.4113Z" fill="white"/>
</g>
<defs>
<filter id="filter0_b_2011_9" x="-4" y="-4" width="32" height="32" filterUnits="userSpaceOnUse" color-interpolation-filters="sRGB">
<feFlood flood-opacity="0" result="BackgroundImageFix"/>
<feGaussianBlur in="BackgroundImageFix" stdDeviation="2"/>
<feComposite in2="SourceAlpha" operator="in" result="effect1_backgroundBlur_2011_9"/>
<feBlend mode="normal" in="SourceGraphic" in2="effect1_backgroundBlur_2011_9" result="shape"/>
</filter>
<clipPath id="clip0_2011_9">
<rect width="24" height="24" fill="white"/>
</clipPath>
</defs>
</svg>
