<svg width="24" height="24" viewBox="0 0 24 24" fill="none" xmlns="http://www.w3.org/2000/svg">
<g filter="url(#filter0_b_2005_2)">
<rect width="24" height="24" fill="white"/>
<path d="M21 15.1495C18 15.1495 17.5 15.187 15 15.187C15 20.187 15 18.988 15 21.988C14.7024 21.988 14.7255 21.1898 13.8449 21.7577C13.1246 22.2222 12.5079 21.85 12.396 21.7577C12.2841 21.6654 11.0636 20.6795 11.0636 20.6795L9.87042 21.7577C9.70119 21.9081 9.48214 21.9902 9.25575 21.988C9.03156 21.99 8.8146 21.9087 8.6468 21.76L7.45597 20.6818L6.25137 21.7695C6.08207 21.9192 5.8636 22.0012 5.63766 21.9999C5.41308 22.0024 5.19562 21.9211 5.02775 21.772L3.62985 20.5084C3.66224 20.5568 3.58623 20.47 3.62985 20.5084C3.47223 20.3934 3.2291 20.1127 3.13964 19.9393C3.05018 19.7659 3.00237 19.574 3 19.3789V3.95333C3 3.4275 3.42086 3 3.92673 3H20C20.5121 3 21 3.47037 21 4V15.1495Z" fill="#030303"/>
<circle cx="17.5" cy="17.5" r="5.5" fill="white"/>
<path d="M17.5001 22C15.0147 22 13 19.9853 13 17.5C13 15.0147 15.0147 13 17.5001 13C19.9854 13 22 15.0147 22 17.5C22 19.9854 19.9853 22 17.5001 22ZM19.6232 17.4392C19.6745 17.4433 19.7261 17.4366 19.7747 17.4197C19.8233 17.4028 19.868 17.376 19.9058 17.341C19.9436 17.3061 19.9737 17.2637 19.9943 17.2165C20.015 17.1693 20.0256 17.1184 20.0256 17.0669C20.0256 17.0154 20.015 16.9644 19.9943 16.9173C19.9737 16.8701 19.9436 16.8277 19.9058 16.7927C19.868 16.7578 19.8233 16.731 19.7747 16.7141C19.7261 16.6972 19.6745 16.6905 19.6232 16.6945H18.6529L19.6204 15.7292C19.6555 15.6947 19.6833 15.6536 19.7023 15.6082C19.7213 15.5628 19.731 15.5141 19.731 15.4649C19.731 15.4157 19.7213 15.367 19.7023 15.3216C19.6833 15.2762 19.6555 15.2351 19.6204 15.2005C19.5499 15.1312 19.4549 15.0923 19.356 15.0923C19.2571 15.0923 19.1622 15.1312 19.0917 15.2005L17.716 16.5707L16.3413 15.2014C16.2886 15.1493 16.2218 15.1138 16.1491 15.0995C16.0764 15.0852 16.0011 15.0926 15.9326 15.1208C15.8641 15.149 15.8055 15.1968 15.7641 15.2582C15.7226 15.3197 15.7002 15.3919 15.6996 15.466C15.6996 15.565 15.7396 15.6604 15.8103 15.7301L16.78 16.6945H15.8733C15.7782 16.7002 15.689 16.742 15.6237 16.8113C15.5584 16.8805 15.5221 16.9721 15.5221 17.0673C15.5221 17.1625 15.5584 17.2541 15.6237 17.3234C15.689 17.3927 15.7782 17.4345 15.8733 17.4402H17.3732V18.1862H15.8719C15.7729 18.1862 15.6779 18.2256 15.6078 18.2957C15.5378 18.3657 15.4984 18.4607 15.4984 18.5597C15.4984 18.6588 15.5378 18.7538 15.6078 18.8238C15.6779 18.8939 15.7729 18.9332 15.8719 18.9332H17.3727V19.8026C17.3727 19.9022 17.4122 19.9976 17.4826 20.068C17.553 20.1384 17.6484 20.1779 17.748 20.1779C17.8475 20.1779 17.943 20.1384 18.0133 20.068C18.0837 19.9976 18.1233 19.9022 18.1233 19.8026V18.9332H19.6227C19.7218 18.9332 19.8168 18.8939 19.8868 18.8238C19.9569 18.7538 19.9962 18.6588 19.9962 18.5597C19.9962 18.4607 19.9569 18.3657 19.8868 18.2957C19.8168 18.2256 19.7218 18.1862 19.6227 18.1862H18.1233V17.4392H19.6232Z" fill="#030303"/>
<rect x="12" y="3" width="9" height="9" rx="1.3" fill="white"/>
<path d="M19.875 3H13.125C12.5062 3 12 3.50623 12 4.12498V10.875C12 11.4938 12.5062 12 13.125 12H19.875C20.4938 12 21 11.4938 21 10.875V4.12498C21 3.50623 20.4938 3 19.875 3ZM16.5 9.91878C16.1063 9.91878 15.7687 9.86253 15.4313 9.74999C15.2063 9.86251 14.8688 10.1437 14.7562 10.2C14.5312 10.3125 14.5875 10.0875 14.5875 10.0875L14.7 9.41251C14.025 8.9625 13.6312 8.23126 13.6312 7.44376C13.6312 6.03751 14.925 4.91249 16.5 4.91249C17.4563 4.91249 18.3562 5.3625 18.8625 5.98125L16.05 7.27502C16.05 7.27502 15.825 7.3875 15.6 7.21876L15.15 6.88126C15.15 6.88126 14.8125 6.6 14.9812 7.05002L15.4313 8.06252C15.4313 8.06252 15.4875 8.34374 15.825 8.17501C16.1063 8.06252 18.1875 6.76876 19.0875 6.26252C19.2563 6.60002 19.3687 6.99376 19.3687 7.3875C19.3688 8.73749 18.075 9.91878 16.5 9.91878Z" fill="#030303"/>
<path d="M4.41051 12.561L2.78571 10.4203V2.78571L9.89936 2.2928L12.5753 4.39623V11.9761L4.41051 12.561Z" fill="white"/>
<path d="M2.71906 2.46288L9.48144 2.00319C9.77531 1.9828 10.0676 2.06058 10.312 2.22418L12.688 3.82257C12.883 3.95373 13 4.16839 13 4.39782V11.8373C13 12.2076 12.7002 12.5142 12.3157 12.5378L4.80925 12.9975C4.6217 13.0097 4.43393 12.9772 4.26162 12.9025C4.08932 12.8278 3.9375 12.7131 3.81885 12.5681L2.36038 10.761C2.12773 10.474 2.00058 10.1166 2 9.74798V3.20472C2 2.81419 2.31374 2.49072 2.71906 2.46288ZM3.12311 3.08495C3.00482 3.09338 2.9603 3.23762 3.05442 3.30678L3.99649 4.00054C4.15972 4.12074 4.36238 4.18104 4.56759 4.16966L11.3495 3.80274C11.4101 3.79979 11.433 3.72557 11.3842 3.69098L10.0987 2.78551C9.93216 2.66875 9.73005 2.61301 9.52681 2.62778L3.12311 3.08495ZM4.65492 4.9077C4.42725 4.91993 4.2496 5.10085 4.2496 5.32016V11.7348C4.2496 11.9727 4.45735 12.1616 4.70453 12.1477L11.8298 11.7441C12.0567 11.7314 12.2343 11.5505 12.2343 11.3316V4.89041C12.2343 4.67659 12.0478 4.50705 11.8256 4.51928L4.65492 4.9077ZM5.48506 6.39348V6.47909L6.06252 6.51115V10.7205L5.84078 10.7437C5.62158 10.7669 5.46302 10.9554 5.48506 11.1663L7.17206 11.0912C7.37811 11.0824 7.54812 10.9339 7.5778 10.7378L7.58713 10.6754L6.90877 10.5463V7.3892L9.11258 10.6969C9.32796 11.0208 9.7477 11.1587 10.1246 11.0301L10.5757 10.8757V6.14972L10.9348 6.08941C10.9839 6.08192 11.0288 6.05734 11.0614 6.02004C11.094 5.98274 11.1123 5.93514 11.1129 5.88571V5.67189L9.61923 5.7478C9.39113 5.75961 9.21222 5.94096 9.21222 6.16068V6.20117L9.79645 6.27877V9.19719L7.5265 5.87221L5.8853 5.98102C5.66017 5.9962 5.48506 6.17629 5.48506 6.39348Z" fill="black"/>
<rect x="4" y="14" width="6" height="6" rx="1.2" fill="black"/>
<path d="M10 18.1077V15.1536C10 14.5168 9.48326 14 8.84611 14H5.15351C4.51677 14 4 14.5168 4 15.1536V18.8464C4 19.4832 4.51636 20 5.15351 20H8.84611C9.41348 20 9.88562 19.5897 9.98198 19.0501C9.67598 18.9177 8.34998 18.345 7.65921 18.0154C7.13351 18.6522 6.58297 19.0343 5.7531 19.0343C4.92323 19.0343 4.36934 18.5232 4.43572 17.8976C4.47959 17.487 4.76122 16.8157 5.98445 16.9308C6.62908 16.9912 6.92422 17.1116 7.44998 17.2852C7.58608 17.0359 7.69892 16.7613 7.7848 16.4692H5.45351V16.2381H6.60699V15.8234H5.2V15.5691H6.60699V14.9706C6.60699 14.9706 6.61974 14.8768 6.72326 14.8768H7.3V15.5691H8.79994V15.8234H7.3V16.2381H8.52364C8.41112 16.696 8.24049 17.1168 8.02675 17.4843C8.38224 17.613 10 18.1077 10 18.1077ZM5.66125 18.6383C4.78451 18.6383 4.64577 18.0848 4.69226 17.8534C4.73837 17.6231 4.99226 17.3227 5.47977 17.3227C6.04 17.3227 6.54175 17.466 7.14399 17.7592C6.72099 18.3102 6.20125 18.6383 5.66125 18.6383Z" fill="white"/>
</g>
<defs>
<filter id="filter0_b_2005_2" x="-4" y="-4" width="32" height="32" filterUnits="userSpaceOnUse" color-interpolation-filters="sRGB">
<feFlood flood-opacity="0" result="BackgroundImageFix"/>
<feGaussianBlur in="BackgroundImageFix" stdDeviation="2"/>
<feComposite in2="SourceAlpha" operator="in" result="effect1_backgroundBlur_2005_2"/>
<feBlend mode="normal" in="SourceGraphic" in2="effect1_backgroundBlur_2005_2" result="shape"/>
</filter>
</defs>
</svg>
