<svg width="128" height="128" viewBox="0 0 128 128" fill="none" xmlns="http://www.w3.org/2000/svg">
<rect width="128" height="128" fill="#F5F5F5"/>
<g clip-path="url(#clip0_0_1)">
<rect width="128" height="128" fill="white"/>
<path d="M110.777 61.4737C93.2305 53.6621 72.7085 60.2898 62.8193 76.9585C52.9272 93.6267 56.7402 115.166 71.7288 127.287C69.6024 128.241 67.1253 127.907 65.3211 126.419L56.6255 119.382L48.8385 126.419C47.7341 127.4 46.3045 127.936 44.827 127.922C43.3638 127.935 41.9479 127.404 40.8528 126.434L33.0811 119.397L25.2195 126.496C24.1145 127.473 22.6887 128.008 21.2142 128C19.7485 128.016 18.3293 127.485 17.2337 126.512L8.11062 118.266C7.82591 118.015 7.57481 117.729 7.36344 117.413C6.33477 116.663 5.49519 115.683 4.91134 114.551C4.3275 113.42 4.01546 112.167 4 110.894V10.2217C4 6.79002 6.74663 4 10.0481 4H104.728C108.071 4 110.777 6.76516 110.777 10.2217V61.4737Z" fill="#030303"/>
<path d="M97.0004 128C79.8787 128 65.9999 114.121 65.9999 96.9998C65.9999 79.8787 79.8787 65.9999 97.0004 65.9999C114.122 65.9999 128 79.8787 128 96.9998C128 114.121 114.121 128 97.0004 128ZM111.626 96.581C111.98 96.6089 112.335 96.5628 112.67 96.4464C113.005 96.3301 113.313 96.1457 113.573 95.9048C113.833 95.6638 114.041 95.3718 114.183 95.0466C114.325 94.7217 114.399 94.3707 114.399 94.016C114.399 93.6612 114.325 93.3102 114.183 92.9854C114.041 92.6605 113.833 92.3681 113.573 92.1276C113.313 91.8866 113.005 91.7022 112.67 91.5855C112.335 91.4692 111.98 91.4235 111.626 91.4509H104.942L111.607 84.8012C111.849 84.5632 112.04 84.2799 112.171 83.9671C112.302 83.6547 112.369 83.319 112.369 82.9801C112.369 82.6411 112.302 82.3055 112.171 81.9931C112.04 81.6803 111.849 81.397 111.607 81.159C111.121 80.6813 110.467 80.4138 109.786 80.4138C109.105 80.4138 108.451 80.6813 107.965 81.159L98.4882 90.5981L89.0175 81.1652C88.6551 80.8059 88.1943 80.5616 87.6938 80.4628C87.1932 80.3643 86.6743 80.4154 86.2026 80.6098C85.7306 80.8042 85.3267 81.1336 85.0413 81.5565C84.7555 81.9798 84.601 82.4774 84.5969 82.988C84.5969 83.6696 84.8731 84.3268 85.3598 84.8074L92.0399 91.4509H85.7938C85.1388 91.4899 84.524 91.7778 84.0746 92.2551C83.6247 92.7324 83.3744 93.3634 83.3744 94.0193C83.3744 94.6748 83.6247 95.3058 84.0746 95.7835C84.524 96.2608 85.1388 96.5482 85.7938 96.5877H96.1261V101.727H85.7841C85.102 101.727 84.4475 101.998 83.9649 102.481C83.4824 102.963 83.2112 103.618 83.2112 104.3C83.2112 104.982 83.4824 105.637 83.9649 106.119C84.4475 106.602 85.102 106.873 85.7841 106.873H96.1228V112.862C96.1228 113.548 96.3952 114.206 96.8799 114.69C97.3649 115.175 98.0224 115.448 98.7083 115.448C99.3938 115.448 100.052 115.175 100.536 114.69C101.021 114.206 101.294 113.548 101.294 112.862V106.873H111.623C112.305 106.873 112.96 106.602 113.442 106.119C113.925 105.637 114.196 104.982 114.196 104.3C114.196 103.618 113.925 102.963 113.442 102.481C112.96 101.998 112.305 101.727 111.623 101.727H101.294V96.581H111.626Z" fill="#030303"/>
<rect x="61" y="6" width="50" height="50" rx="8" fill="white"/>
<path d="M104.75 6H67.2499C63.8124 6 61 8.81236 61 12.2499V49.7501C61 53.1876 63.8124 56 67.2499 56H104.75C108.188 56 111 53.1876 111 49.7501V12.2499C111 8.81236 108.188 6 104.75 6ZM86.0002 44.4377C83.8126 44.4377 81.9375 44.1251 80.0625 43.4999C78.8125 44.1251 76.9375 45.6874 76.3124 46C75.0624 46.6251 75.375 45.3751 75.375 45.3751L76.0001 41.6251C72.25 39.125 70.0624 35.0626 70.0624 30.6875C70.0624 22.8751 77.2498 16.6249 86.0001 16.6249C91.3125 16.6249 96.3124 19.125 99.1251 22.5625L83.5001 29.7501C83.5001 29.7501 82.25 30.375 81 29.4375L78.5 27.5626C78.5 27.5626 76.625 26 77.5624 28.5001L80.0625 34.1251C80.0625 34.1251 80.3751 35.6874 82.25 34.75C83.8126 34.1251 95.375 26.9375 100.375 24.1251C101.313 26.0001 101.937 28.1875 101.937 30.375C101.938 37.8749 94.7501 44.4377 86.0002 44.4377Z" fill="#030303"/>
<rect x="12" y="70" width="40" height="40" rx="8" fill="#030303"/>
<path d="M52 97.3845V77.6906C52 73.4452 48.5551 70 44.3074 70H19.6901C15.4451 70 12 73.4452 12 77.6906V102.31C12 106.555 15.4424 110 19.6901 110H44.3074C48.0898 110 51.2375 107.265 51.8799 103.667C49.8399 102.785 40.9999 98.9667 36.3947 96.769C32.8901 101.015 29.2198 103.562 23.6873 103.562C18.1549 103.562 14.4623 100.154 14.9048 95.9841C15.1973 93.2464 17.0748 88.7712 25.2297 89.5386C29.5272 89.9412 31.4948 90.744 34.9999 91.9013C35.9072 90.2392 36.6594 88.4086 37.232 86.4611H21.6901V84.921H29.3799V82.1557H20V80.4607H29.3799V76.4705C29.3799 76.4705 29.4649 75.8453 30.1551 75.8453H34V80.4607H43.9996V82.1557H34V84.921H42.1576C41.4075 87.9737 40.27 90.7787 38.845 93.2289C41.2149 94.0864 52 97.3845 52 97.3845ZM23.075 100.922C17.2301 100.922 16.3051 97.232 16.615 95.6891C16.9225 94.154 18.615 92.1515 21.8651 92.1515C25.6 92.1515 28.945 93.1065 32.9599 95.0614C30.1399 98.7344 26.675 100.922 23.075 100.922Z" fill="white"/>
<path d="M11.3872 58.2845L4.49259 49.5773C2.84203 47.5037 1.93974 44.9206 1.93518 42.256V10.7293C1.93518 6.75879 5.06981 3.46287 9.11036 3.18246L41.082 0.969597C43.3959 0.806614 45.6973 1.43088 47.6218 2.74354L58.8536 10.4428C59.8353 11.1052 60.6413 12.002 61.2009 13.0544C61.7604 14.1067 62.0562 15.2824 62.0624 16.4779V52.3226C62.0624 56.2078 58.9819 59.4244 55.0235 59.6723L19.5384 61.8852C16.3797 62.0823 13.3273 60.733 11.3872 58.2824V58.2845Z" fill="white"/>
<path d="M4.18362 2.69314L43.5284 0.0185554C45.2382 -0.100052 46.9388 0.352448 48.3608 1.30432L62.1845 10.604C63.3192 11.3671 64 12.6161 64 13.9509V57.235C64 59.3894 62.256 61.1733 60.0187 61.3107L16.3447 63.9853C15.2535 64.0567 14.161 63.8672 13.1585 63.4326C12.156 62.998 11.2727 62.331 10.5824 61.4874L2.09674 50.9731C0.743147 49.3035 0.00340355 47.2241 0 45.0792V7.00928C0 4.73711 1.8254 2.85263 4.18362 2.69069V2.69314ZM6.53444 6.31242C5.84621 6.36149 5.5872 7.20068 6.13482 7.60309L11.616 11.6395C12.5657 12.3388 13.7448 12.6897 14.9387 12.6235L54.3969 10.4887C54.7497 10.4715 54.8829 10.0397 54.5992 9.83845L47.12 4.57026C46.1508 3.89091 44.9748 3.56662 43.7923 3.65256L6.53444 6.31242ZM15.4468 16.9175C14.1222 16.9887 13.0886 18.0413 13.0886 19.3173V56.6388C13.0886 58.0227 14.2973 59.122 15.7354 59.041L57.1918 56.6928C58.5115 56.6192 59.545 55.5665 59.545 54.293V16.8169C59.545 15.5729 58.4597 14.5865 57.1671 14.6576L15.4468 16.9151V16.9175ZM20.2767 25.5621V26.0602L23.6365 26.2467V50.7375L22.3463 50.8725C21.071 51.0074 20.1485 52.1043 20.2767 53.3311L30.092 52.8944C31.2908 52.8428 32.28 51.9791 32.4526 50.8381L32.5069 50.475L28.5601 49.7241V31.3554L41.3823 50.6001C42.6354 52.4846 45.0775 53.287 47.2705 52.5386L49.8951 51.6405V24.1438L51.9844 23.7929C52.2702 23.7494 52.5312 23.6063 52.7209 23.3893C52.9106 23.1723 53.0168 22.8953 53.0205 22.6078V21.3637L44.3301 21.8054C43.003 21.8741 41.962 22.9292 41.962 24.2076V24.4432L45.3612 24.8947V41.8746L32.1542 22.5292L22.6054 23.1623C21.2955 23.2506 20.2767 24.2984 20.2767 25.5621Z" fill="black"/>
</g>
<defs>
<clipPath id="clip0_0_1">
<rect width="128" height="128" fill="white"/>
</clipPath>
</defs>
</svg>
